<svg xmlns="http://www.w3.org/2000/svg" width="109.66" height="41.188" viewBox="0 0 109.66 41.188">
  <defs>
    <style>
      .cls-1 {
        fill: #35b99d;
        fill-rule: evenodd;
      }
    </style>
  </defs>
  <path id="logo.svg" class="cls-1" d="M1041.99,89.824l-5.71-39.267h-4.8l-8.89,24.578c-1.1,3.024-2.35,6.865-2.83,8.689-0.48-1.728-1.77-5.665-2.83-8.593l-8.83-24.674h-4.9l-5.712,39.267h5.182l2.74-23.138c0.48-3.984.77-10.657,0.77-10.8,0.09,0.336,1.87,7.153,3.07,10.369l8.35,23.57h4.32l8.35-23.57a90.773,90.773,0,0,0,3.03-10.273c0,2.5.29,6.769,0.72,10.513l2.83,23.33h5.14Zm36.62-6.193a19.427,19.427,0,0,1-10.7,2.976c-9.56,0-16.61-6.817-16.61-16.321,0-9.457,7.05-16.321,16.61-16.321a19.2,19.2,0,0,1,9.74,2.544l-0.05-5.281a29.47,29.47,0,0,0-9.65-1.488c-12.72,0-21.89,8.641-21.89,20.546,0,11.953,9.17,20.594,21.89,20.594a28,28,0,0,0,10.66-1.872V83.632Zm4.41,4.7a21.961,21.961,0,0,0,10.71,2.352c7.2-.048,13.44-4.416,13.44-12,0-6.481-4.46-9.841-10.27-11.953-5.57-1.872-8.88-3.216-8.88-7.345,0-3.072,2.4-5.52,7-5.52a17.262,17.262,0,0,1,8.69,2.352V51.229a26.615,26.615,0,0,0-8.54-1.536c-7.92,0-11.91,4.464-11.91,9.745,0,4.56,2.6,8.113,9.03,10.273,4.37,1.392,9.89,3.6,9.89,8.977,0,4.8-3.65,7.777-8.4,7.777a16.9,16.9,0,0,1-10.76-3.456v5.328Z" transform="translate(-997.5 -49.688)"/>
</svg>
